<svg id="Outline" xmlns="http://www.w3.org/2000/svg" viewBox="0 0 1629.69 390.38"><defs><style>.cls-1{fill:#ff5557;}</style></defs><path class="cls-1" d="M324,254.62c26.22,72.25-10.49,135.76-105.46,135.76H142.17L0,0H76.91c95.56,0,144.5,23.31,164.31,78.08C254,113,245.3,146.83,224.91,169,269.77,181.21,306.48,206.84,324,254.62ZM135.18,160.81c25,0,54.18-21,40.2-58.85C163.73,69.92,132.26,57.1,98.47,60ZM198.1,331c43.12.58,62.93-24.47,47.78-62.34-15.73-39-50.69-55.36-92.64-55.36ZM474.28,195.77,614.7,390.38h-88L421.26,237.14l56.52,153.24H400.87L258.7,0h75.74C433.5,0,481.86,29.72,501.67,81.57,518.56,123.52,504.58,171.3,474.28,195.77ZM398,170.72c29.14,0,54.19-23.31,39.63-63.51C425.92,75.75,396.21,56.52,357.75,60ZM699.77,326.29h95.56l23.3,64.09H646.17L504,0H687l23.89,64.09H604.21L639.76,162h89.73l22.72,61.76H662.48ZM769.69,0H879.81l213.25,390.38h-83.9l-48.94-95.55H892.05l17.48,95.55H838.44ZM879.81,230.73H927L848.35,73.42ZM1192.12,0l-14.57,169,170.72,221.41h-88l-124.11-162,59.43,162h-76.33L977.12,0H1054l55.35,153.82L1121,0Zm39.62,0h76.91l142.17,390.38H1373.9Zm279.09,64.09,118.86,326.29h-76.91L1433.92,64.09h-68.17L1343,0h225.49l22.73,64.09Z"/></svg>