<?xml version="1.0" encoding="UTF-8"?>
<svg width="1324px" height="512px" viewBox="0 0 1324 512" version="1.1" xmlns="http://www.w3.org/2000/svg" xmlns:xlink="http://www.w3.org/1999/xlink">
    <title>Hidden Dreams Logotype Dark</title>
    <g id="Hidden-Dreams-Logotype-Dark" stroke="none" stroke-width="1" fill="none" fill-rule="evenodd">
        <g id="Group" transform="translate(0.000000, -0.000000)" fill="#00205B">
            <polygon id="Fill-1" points="374.021938 52.0452197 415.131721 52.0452197 415.131721 121.694007 494.912856 121.694007 494.912856 52.0452197 536.022639 52.0452197 536.022639 238.832892 494.912856 238.832892 494.912856 158.104761 415.131721 158.104761 415.131721 238.832892 374.021938 238.832892"></polygon>
            <polygon id="Fill-2" points="557.584746 238.833731 598.694529 238.833731 598.694529 52.046059 557.584746 52.046059"></polygon>
            <path d="M661.370609,200.839974 L682.713173,200.839974 C692.190377,200.839974 701.022361,199.874728 709.167226,197.944236 C717.353989,196.005351 724.42628,192.790662 730.384098,188.308564 C736.341916,183.826466 741.059569,177.934269 744.486781,170.631974 C747.880475,163.329679 749.589891,154.415843 749.589891,143.856892 C749.589891,134.716433 747.880475,126.751056 744.486781,119.985941 C741.059569,113.212433 736.43409,107.630793 730.643862,103.23263 C724.853634,98.8344656 718.041107,95.5358426 710.239801,93.3283672 C702.396597,91.1376787 694.201455,90.0297443 685.587338,90.0297443 L661.370609,90.0297443 L661.370609,200.839974 Z M620.302723,52.041023 L681.900362,52.041023 C696.815856,52.041023 711.010714,53.7197115 724.468177,57.0603016 C737.892122,60.4092852 749.589891,65.8062689 759.628522,73.2848262 C769.608496,80.7549902 777.585771,90.4745967 783.459795,102.435252 C789.333818,114.404302 792.291778,128.90817 792.291778,145.963646 C792.291778,161.097023 789.417613,174.42581 783.719559,185.941613 C778.013125,197.457416 770.337511,207.135056 760.65082,214.957744 C751.006025,222.780433 739.861302,228.714597 727.21665,232.76863 C714.571998,236.814269 701.324023,238.828695 687.430826,238.828695 L620.302723,238.828695 L620.302723,52.041023 Z" id="Fill-3"></path>
            <path d="M850.760515,200.839974 L872.061182,200.839974 C881.538386,200.839974 890.37037,199.874728 898.557133,197.944236 C906.701998,196.005351 913.782668,192.790662 919.732107,188.308564 C925.740202,183.826466 930.407578,177.934269 933.84317,170.631974 C937.270382,163.329679 938.988177,154.415843 938.988177,143.856892 C938.988177,134.716433 937.270382,126.751056 933.84317,119.985941 C930.407578,113.212433 925.823997,107.630793 919.991871,103.23263 C914.210022,98.8344656 907.431014,95.5358426 899.58781,93.3283672 C891.786504,91.1376787 883.557844,90.0297443 874.985624,90.0297443 L850.760515,90.0297443 L850.760515,200.839974 Z M809.650732,52.041023 L871.298648,52.041023 C886.214142,52.041023 900.400621,53.7197115 913.816186,57.0603016 C927.240131,60.4092852 938.988177,65.8062689 948.976531,73.2848262 C958.998402,80.7549902 966.93378,90.4745967 972.807803,102.435252 C978.723724,114.404302 981.639787,128.90817 981.639787,145.963646 C981.639787,161.097023 978.807519,174.42581 973.067568,185.941613 C967.361134,197.457416 959.6939,207.135056 950.049106,214.957744 C940.395932,222.780433 929.209311,228.714597 916.606557,232.76863 C903.961904,236.814269 890.672032,238.828695 876.820733,238.828695 L809.650732,238.828695 L809.650732,52.041023 Z" id="Fill-5"></path>
            <polygon id="Fill-7" points="995.315117 52.0452197 1122.03816 52.0452197 1122.03816 90.033941 1036.4249 90.033941 1036.4249 124.858334 1117.27861 124.858334 1117.27861 162.847056 1036.4249 162.847056 1036.4249 200.84417 1126.74743 200.84417 1126.74743 238.832892 995.315117 238.832892"></polygon>
            <polygon id="Fill-9" points="1143.89523 52.0452197 1199.71102 52.0452197 1278.97262 181.84981 1279.53405 181.84981 1279.53405 52.0452197 1320.59355 52.0452197 1320.59355 238.832892 1266.88102 238.832892 1185.47426 105.872367 1184.96311 105.872367 1184.96311 238.832892 1143.89523 238.832892"></polygon>
            <path d="M396.271162,427.860774 L437.104423,427.860774 C447.461474,427.860774 457.081129,426.501036 465.929872,423.773167 C474.778615,421.045298 482.43747,416.823397 488.898057,411.115856 C495.375404,405.416708 500.470134,398.122807 504.224146,389.259331 C507.9614,380.395856 509.830026,369.744577 509.830026,357.305495 C509.830026,344.866413 507.9614,334.215134 504.224146,325.351659 C500.470134,316.488184 495.375404,309.211069 488.898057,303.503528 C482.43747,297.787593 474.778615,293.574085 465.929872,290.837823 C457.081129,288.118348 447.461474,286.750216 437.104423,286.750216 L396.271162,286.750216 L396.271162,427.860774 Z M374.836424,266.81579 L444.243749,266.81579 C450.209947,266.81579 456.494565,267.504052 463.122743,268.86379 C469.767679,270.223528 476.353959,272.39743 482.915101,275.377102 C489.459483,278.356774 495.752481,282.234544 501.794094,287.010413 C507.835707,291.786282 513.156684,297.544184 517.748645,304.267331 C522.332227,310.998872 525.985685,318.74602 528.70902,327.525561 C531.432354,336.305102 532.798211,346.226151 532.798211,357.305495 C532.798211,368.384839 531.432354,378.322675 528.70902,387.08543 C525.985685,395.86497 522.332227,403.628905 517.748645,410.360446 C513.156684,417.083593 507.835707,422.833102 501.794094,427.600577 C495.752481,432.376446 489.459483,436.254216 482.915101,439.242282 C476.353959,442.221954 469.767679,444.387462 463.122743,445.755593 C456.494565,447.123725 450.209947,447.803593 444.243749,447.803593 L374.836424,447.803593 L374.836424,266.81579 Z" id="Fill-11" fill-opacity="0.7"></path>
            <path d="M568.276139,346.573639 L587.406517,346.573639 C593.364335,346.573639 599.53164,346.40577 605.908433,346.061639 C612.285226,345.717508 618.167629,344.617967 623.522124,342.729443 C628.876618,340.857705 633.30099,337.928393 636.795237,333.916328 C640.281106,329.921049 642.02404,324.171541 642.02404,316.667803 C642.02404,310.188066 640.733598,304.984131 638.186233,301.064393 C635.647247,297.153049 632.287071,294.123016 628.114085,291.999475 C623.941098,289.867541 619.265342,288.457443 614.070058,287.777574 C608.883153,287.097705 603.645971,286.753574 598.39203,286.753574 L568.276139,286.753574 L568.276139,346.573639 Z M546.824641,266.819148 L593.012396,266.819148 C601.693549,266.819148 610.332805,267.322754 618.930162,268.355148 C627.510761,269.370754 635.211514,271.586623 642.02404,275.002754 C648.819807,278.410492 654.358651,283.396197 658.598673,289.943082 C662.855455,296.506754 664.992225,305.412197 664.992225,316.667803 C664.992225,329.954623 660.986828,340.69823 652.992794,348.873443 C644.998759,357.057049 633.94621,362.25259 619.826768,364.460066 L671.117633,447.806951 L644.831169,447.806951 L595.836285,366.508066 L568.276139,366.508066 L568.276139,447.806951 L546.824641,447.806951 L546.824641,266.819148 Z" id="Fill-13" fill-opacity="0.7"></path>
            <polygon id="Fill-15" fill-opacity="0.7" points="687.446747 266.81579 801.030749 266.81579 801.030749 286.750216 708.898245 286.750216 708.898245 343.506675 794.905341 343.506675 794.905341 363.441102 708.898245 363.441102 708.898245 427.860774 805.622711 427.860774 805.622711 447.803593 687.446747 447.803593"></polygon>
            <path d="M902.089088,294.417626 L901.56956,294.417626 L864.062957,383.388118 L937.810859,383.388118 L902.089088,294.417626 Z M892.394017,266.811593 L912.538314,266.811593 L989.361488,447.799397 L964.357087,447.799397 L945.972483,403.322544 L855.633189,403.322544 L836.997201,447.799397 L812.763713,447.799397 L892.394017,266.811593 Z" id="Fill-17" fill-opacity="0.7"></path>
            <polygon id="Fill-19" fill-opacity="0.7" points="998.019178 266.81579 1029.9199 266.81579 1091.1656 408.690151 1091.68513 408.690151 1153.45036 266.81579 1184.58855 266.81579 1184.58855 447.803593 1163.15381 447.803593 1163.15381 295.957823 1162.63428 295.957823 1097.81054 447.803593 1084.78881 447.803593 1019.97345 295.957823 1019.47906 295.957823 1019.47906 447.803593 998.019178 447.803593"></polygon>
            <path d="M1299.93476,298.766269 C1296.36509,292.974793 1291.60554,288.761285 1285.64772,286.117351 C1279.68153,283.473416 1273.47232,282.155646 1267.01174,282.155646 C1262.26056,282.155646 1257.56805,282.75158 1252.97609,283.943449 C1248.38413,285.135318 1244.25304,286.931515 1240.59958,289.315252 C1236.93774,291.707384 1234.0133,294.846531 1231.79274,298.766269 C1229.58893,302.686007 1228.46608,307.294007 1228.46608,312.573482 C1228.46608,316.669482 1229.1113,320.287056 1230.40174,323.434597 C1231.66704,326.590531 1233.74516,329.444302 1236.65284,331.995908 C1239.53539,334.555908 1243.44023,336.939646 1248.38413,339.155515 C1253.31127,341.371384 1259.35288,343.587252 1266.49221,345.803121 C1273.47232,348.01899 1280.24295,350.411121 1286.78734,352.962728 C1293.34848,355.514334 1299.12195,358.754203 1304.14964,362.673941 C1309.16058,366.593679 1313.16597,371.495449 1316.13231,377.370859 C1319.12379,383.254662 1320.59858,390.624105 1320.59858,399.48758 C1320.59858,408.527318 1318.81375,416.3584 1315.24409,423.006007 C1311.66604,429.653613 1306.94839,435.142925 1301.07437,439.490728 C1295.22548,443.838531 1288.44647,447.070007 1280.80438,449.201941 C1273.14552,451.333875 1265.2269,452.399843 1257.06528,452.399843 C1251.79458,452.399843 1246.5155,451.92981 1241.2448,450.998138 C1235.96572,450.058072 1230.89613,448.6144 1226.06116,446.650334 C1221.20106,444.694662 1216.65099,442.134662 1212.39421,438.978728 C1208.13743,435.831187 1204.48397,431.953416 1201.42546,427.35381 L1219.81006,412.270793 C1223.71491,418.9184 1229.1532,423.937679 1236.13331,427.35381 C1243.11343,430.761548 1250.50414,432.457023 1258.33896,432.457023 C1262.92254,432.457023 1267.5564,431.785548 1272.24892,430.42581 C1276.92467,429.057679 1281.13956,427.060039 1284.87681,424.407711 C1288.61406,421.763777 1291.68934,418.490334 1294.05235,414.570597 C1296.44051,410.650859 1297.64716,406.135187 1297.64716,401.02358 C1297.64716,395.399974 1296.69189,390.842334 1294.82327,387.350662 C1292.95464,383.850597 1290.0721,380.820564 1286.15887,378.268957 C1282.23727,375.717351 1277.31851,373.409154 1271.35231,371.369548 C1265.39449,369.321548 1258.41438,366.93781 1250.42034,364.209941 C1243.95976,362.161941 1238.00194,359.82017 1232.55527,357.18463 C1227.11698,354.540695 1222.38257,351.30922 1218.39393,347.465023 C1214.40529,343.62922 1211.2546,339.029613 1208.95024,333.666203 C1206.66264,328.302793 1205.51465,321.85663 1205.51465,314.361285 C1205.51465,305.674072 1207.20731,298.0864 1210.60938,291.606662 C1214.01146,285.135318 1218.60342,279.721548 1224.39364,275.373744 C1230.17549,271.034334 1236.73664,267.752498 1244.04355,265.53663 C1251.35885,263.329154 1259.0177,262.22122 1267.01174,262.22122 C1277.21796,262.22122 1286.53595,263.790793 1294.94896,266.938334 C1303.37873,270.102662 1310.90351,275.591974 1317.54845,283.431449 L1299.93476,298.766269 Z" id="Fill-21" fill-opacity="0.7"></path>
            <path d="M160.299665,261.237508 C104.877711,261.237508 59.7876691,216.080787 59.7876691,160.566557 C59.7876691,105.052328 104.877711,59.8956066 160.299665,59.8956066 C215.71324,59.8956066 260.803281,105.052328 260.803281,160.566557 C260.803281,216.080787 215.71324,261.237508 160.299665,261.237508 L160.299665,261.237508 Z M202.5323,387.466492 L194.781271,378.745705 C197.018595,374.977049 199.607858,371.401443 202.549059,368.052459 C205.481881,371.384656 208.062764,374.951869 210.300088,378.712131 L202.5323,387.466492 Z M217.146133,394.307148 L202.5323,410.640787 L187.968745,394.256787 C188.689381,391.915016 189.52733,389.615213 190.482592,387.36577 L202.5323,400.896 L214.598767,387.332197 C215.562409,389.615213 216.417117,391.931803 217.146133,394.307148 L217.146133,394.307148 Z M118.025132,387.466492 L110.274103,378.745705 C112.519807,374.977049 115.10069,371.401443 118.050271,368.052459 C120.983093,371.384656 123.563976,374.951869 125.792921,378.712131 L118.025132,387.466492 Z M132.638965,394.307148 L118.025132,410.640787 L103.469956,394.256787 C104.182213,391.915016 105.028542,389.615213 105.983804,387.36577 L118.025132,400.896 L130.099979,387.332197 C131.063621,389.615213 131.918329,391.931803 132.638965,394.307148 L132.638965,394.307148 Z M160.274527,416.616918 L152.523497,407.887738 C154.769201,404.119082 157.350084,400.543475 160.299665,397.194492 C163.232487,400.526689 165.81337,404.102295 168.050694,407.854164 L160.274527,416.616918 Z M174.888359,423.44918 L160.274527,439.78282 L145.71935,423.39882 C146.431607,421.057049 147.277936,418.765639 148.233198,416.516197 L160.274527,430.046426 L172.349373,416.482623 C173.313015,418.757246 174.167723,421.08223 174.888359,423.44918 L174.888359,423.44918 Z M177.251376,434.167607 C177.67873,437.147279 177.938494,440.168918 177.988771,443.232525 L160.274527,463.032656 L142.60218,443.17377 C142.652457,440.126951 142.9206,437.130492 143.339575,434.159213 L160.274527,453.212328 L177.251376,434.167607 Z M160.299665,491.603934 C151.836379,481.985049 146.230499,470.435672 143.859103,457.99659 L160.274527,476.386623 L176.740227,457.979803 C174.368831,470.427279 168.762951,481.976656 160.299665,491.603934 L160.299665,491.603934 Z M303.982799,135.856262 C302.625322,135.856262 301.284603,135.369443 300.212028,134.513311 C299.457874,133.917377 298.485853,132.843016 298.133914,131.155934 C297.094857,126.329705 295.829554,121.56223 294.354764,116.996197 C293.491676,114.352262 294.639667,111.39777 297.05296,109.987672 C302.189588,107.03318 305.382174,101.501902 305.382174,95.5593443 C305.382174,92.6552131 304.611261,89.7846557 303.15323,87.2750164 L295.08378,73.2831475 C292.863214,69.4221639 289.268413,66.6691148 284.978113,65.5276066 C280.763229,64.4028852 276.389135,64.9568525 272.609984,67.0887869 L272.375359,67.2146885 C269.928547,68.6247869 266.811377,68.1463607 264.959509,66.0899672 C261.708266,62.4891803 258.230778,58.9975082 254.610837,55.732459 C252.549483,53.8607213 252.071852,50.7383607 253.487986,48.3126557 L253.613678,48.0776393 C255.742069,44.2670164 256.295115,39.860459 255.163884,35.6385574 C254.015894,31.3327213 251.259041,27.7571148 247.429614,25.5496393 L233.461002,17.4751475 C229.623195,15.2508852 225.148547,14.6633443 220.858247,15.8048525 C216.576327,16.9547541 213.006664,19.7078033 210.794478,23.5352131 C209.378344,25.9860984 206.437143,27.1611803 203.772465,26.2882623 C199.038052,24.7438689 194.278501,23.4680656 189.636263,22.4944262 C186.938067,21.9236721 184.968887,19.4476066 184.968887,16.6190164 C184.968887,12.1788852 183.234332,8.00734426 180.075264,4.84301639 C176.924575,1.72065574 172.768348,-1.10241782e-13 168.360735,-1.10241782e-13 L152.238595,-1.10241782e-13 C143.079811,-1.10241782e-13 135.630443,7.45337705 135.630443,16.6190164 C135.630443,18.0039344 135.161192,19.3300984 134.298104,20.4212459 C133.694781,21.1682623 132.622206,22.1419016 130.971446,22.4944262 C126.312449,23.4680656 121.552898,24.7438689 116.801727,26.2882623 C114.162187,27.1527869 111.220986,26.0028852 109.804852,23.5436066 C106.838512,18.4152131 101.333186,15.2424918 95.4256448,15.2424918 C92.5012024,15.2424918 89.6186575,16.0146885 87.1299486,17.4751475 L73.1780959,25.5412459 C69.3319095,27.7571148 66.5750569,31.3327213 65.4270666,35.6385574 C64.2958353,39.860459 64.8488817,44.2670164 66.9772725,48.0776393 L67.1113443,48.3126557 C68.5190988,50.7383607 68.0414678,53.8607213 65.980113,55.732459 C62.3685524,58.9975082 58.8826841,62.4807869 55.6314415,66.0899672 C53.779574,68.1463607 50.6540238,68.6247869 48.2155919,67.2146885 L47.9809661,67.0887869 C44.2018156,64.9568525 39.8277213,64.3944918 35.6212167,65.5276066 C31.3309173,66.6691148 27.7361156,69.4221639 25.507171,73.291541 L17.45448,87.266623 C15.2255354,91.1024262 14.6305915,95.5845246 15.7785818,99.8819672 C16.926572,104.196197 19.6918041,107.780197 23.5044726,109.979279 C25.3730991,111.062033 26.5378484,113.068066 26.5378484,115.191607 C26.5378484,115.812721 26.4372945,116.417049 26.2361867,117.012984 C24.7781552,121.537049 23.4960931,126.296131 22.4570362,131.172721 C21.8788513,133.883803 19.4236604,135.856262 16.6081514,135.856262 C12.1921596,135.856262 8.019173,137.568525 4.82658688,140.732852 C1.71779568,143.880393 1.83736303e-14,148.060328 1.83736303e-14,152.492066 L1.83736303e-14,168.641049 C1.83736303e-14,177.815082 7.4493676,185.276852 16.6081514,185.276852 C17.9656289,185.276852 19.3063475,185.755279 20.3789224,186.61141 C21.1414561,187.224131 22.1050976,188.290098 22.4570362,189.97718 C23.5044726,194.836984 24.7781552,199.596066 26.2361867,204.128525 C27.0992743,206.780852 25.968043,209.718557 23.5379905,211.120262 C18.4013625,214.074754 15.2171559,219.606033 15.2171559,225.54859 C15.2171559,228.477902 15.988069,231.348459 17.4461005,233.858098 L25.507171,247.849967 C30.0823731,255.78177 40.2550753,258.509639 48.0312431,254.019148 L48.2239714,253.901639 C50.6624033,252.491541 53.7711945,252.969967 55.6314415,255.043148 C58.916202,258.685902 62.4104498,262.16918 65.980113,265.383869 C67.9660524,267.180066 68.4772014,270.134557 67.2621752,272.526689 L67.0778264,272.862426 C62.5193832,280.811016 65.2510973,291.000656 73.1697164,295.583475 L87.1299486,303.657967 C90.976135,305.88223 95.4507833,306.46977 99.7327032,305.311475 C104.023003,304.161574 107.601045,301.400131 109.788093,297.581115 C110.466831,296.414426 111.497509,295.516328 112.687396,295.012721 C112.712535,295.004328 112.737673,294.995934 112.762812,294.987541 L112.762812,360.590689 C98.9450311,375.497443 91.3783506,394.785574 91.3783506,415.25718 C91.3783506,436.752787 99.7243237,456.94741 114.899582,472.139541 L118.050271,475.295475 L121.19258,472.139541 C123.061206,470.267803 124.829279,468.320525 126.488418,466.306098 C126.697906,466.045902 126.915772,465.777311 127.12526,465.517115 C126.13648,461.429508 125.440982,457.266361 125.038766,453.044459 C125.022007,453.078033 124.996869,453.128393 124.97173,453.170361 C122.935514,456.427016 120.622775,459.53259 118.050271,462.461902 C109.586985,452.843016 103.981105,441.293639 101.609709,428.854557 L118.025132,447.24459 L124.753864,439.715672 C125.038766,434.352262 125.792921,429.047607 126.999567,423.860459 L118.025132,433.890623 L100.352786,414.031738 C100.403063,410.984918 100.671206,407.980066 101.090181,405.008787 L118.025132,424.070295 L132.295406,408.064 C133.552329,405.227016 134.951704,402.45718 136.50191,399.771279 C137.99346,397.169311 139.62746,394.642885 141.387154,392.200393 C137.918044,380.508328 131.801016,369.731148 123.32935,360.590689 L123.32935,296.775344 C125.826439,297.455213 128.365424,298.076328 130.954687,298.638689 C133.661263,299.209443 135.630443,301.677115 135.630443,304.488918 C135.630443,308.945836 137.356618,313.12577 140.515686,316.290098 C143.666375,319.412459 147.830982,321.133115 152.238595,321.133115 L155.003827,321.133115 L155.003827,389.741115 C150.864358,394.21482 147.269556,399.09141 144.286457,404.278557 C137.33148,416.339934 133.627745,430.08 133.627745,444.399213 C133.627745,446.43882 133.70316,448.461639 133.853991,450.467672 C135.270125,469.680262 143.41499,487.533115 157.148976,501.281574 L160.207491,504.361967 L160.299665,504.445902 L163.441974,501.281574 C177.033509,487.684197 185.144856,470.057967 186.695062,451.088787 C186.871031,448.872918 186.963206,446.640262 186.963206,444.399213 C186.963206,429.83659 183.133778,415.869902 175.944175,403.657443 C173.036491,398.705311 169.567382,394.038557 165.587124,389.741115 L165.587124,321.133115 L168.360735,321.133115 C177.519519,321.133115 184.968887,313.671344 184.968887,304.488918 C184.968887,303.12918 185.438138,301.78623 186.301226,300.720262 C186.89617,299.956459 187.977124,298.991213 189.653022,298.638689 C192.183629,298.093115 194.714235,297.463607 197.253221,296.775344 L197.253221,360.599082 C188.789935,369.731148 182.672906,380.516721 179.203797,392.208787 C180.812659,394.433049 182.304209,396.724459 183.695204,399.083016 C185.40462,401.995541 186.938067,404.983607 188.303924,408.064 L202.5323,424.070295 L219.50077,405.01718 C219.928124,408.005246 220.196267,411.026885 220.246544,414.090492 L202.5323,433.890623 L193.591383,423.852066 C194.806409,429.047607 195.560564,434.369049 195.837087,439.749246 L202.5323,447.24459 L218.989621,428.83777 C216.618225,441.276852 211.012345,452.834623 202.549059,462.461902 C200.127386,459.708852 197.940339,456.804721 195.996297,453.757902 C195.845466,453.522885 195.694635,453.279475 195.552184,453.044459 C195.149969,457.266361 194.454471,461.437902 193.465691,465.517115 C193.784111,465.911607 194.110912,466.314492 194.429332,466.70059 C195.996297,468.580721 197.655436,470.385311 199.398371,472.139541 L202.549059,475.295475 L205.699748,472.139541 C220.866627,456.94741 229.220979,436.752787 229.220979,415.25718 C229.220979,394.793967 221.645919,375.497443 207.836518,360.590689 L207.836518,294.995934 C209.043165,295.491148 210.098981,296.372459 210.786099,297.555934 C213.744059,302.701115 219.257764,305.890623 225.173685,305.890623 C228.098128,305.890623 230.972293,305.118426 233.461002,303.657967 L247.429614,295.583475 C255.348233,291.000656 258.071567,280.811016 253.521504,272.862426 L253.353914,272.593836 C252.10537,270.193311 252.608139,267.188459 254.602458,265.392262 C258.18888,262.16918 261.674748,258.685902 264.959509,255.043148 C266.819756,252.969967 269.936927,252.491541 272.366979,253.901639 L272.526189,253.993967 C280.41967,258.484459 290.525336,255.739803 295.08378,247.841574 L303.14485,233.858098 C305.373795,230.005508 305.960359,225.52341 304.812369,221.225967 C303.664378,216.936918 300.907526,213.344525 297.069719,211.128656 C295.217851,210.045902 294.061482,208.065049 294.061482,205.941508 C294.061482,205.312 294.153656,204.724459 294.354764,204.120131 C295.829554,199.562492 297.094857,194.80341 298.133914,189.960393 C298.712099,187.249311 301.17567,185.276852 303.982799,185.276852 C308.423929,185.276852 312.605295,183.547803 315.764364,180.375082 C318.873155,177.219148 320.590951,173.056 320.590951,168.641049 L320.590951,152.492066 C320.590951,143.318033 313.141583,135.856262 303.982799,135.856262 L303.982799,135.856262 Z" id="Fill-25"></path>
            <path d="M160.299665,218.843908 C128.214594,218.843908 102.112479,192.706728 102.112479,160.568236 C102.112479,128.429744 128.214594,102.28417 160.299665,102.28417 C192.384736,102.28417 218.486851,128.429744 218.486851,160.568236 C218.486851,192.706728 192.384736,218.843908 160.299665,218.843908 M160.299665,91.6832525 C122.382468,91.6832525 91.5291814,122.587908 91.5291814,160.568236 C91.5291814,198.548564 122.382468,229.444826 160.299665,229.444826 C198.216862,229.444826 229.061769,198.548564 229.061769,160.568236 C229.061769,122.587908 198.216862,91.6832525 160.299665,91.6832525" id="Fill-28"></path>
            <path d="M160.299665,134.073495 C145.710971,134.073495 133.845612,145.95861 133.845612,160.5632 C133.845612,175.16779 145.710971,187.052905 160.299665,187.052905 C174.87998,187.052905 186.745339,175.16779 186.745339,160.5632 C186.745339,145.95861 174.87998,134.073495 160.299665,134.073495" id="Fill-30"></path>
        </g>
    </g>
</svg>