<?xml version="1.0" standalone="no"?>
<!DOCTYPE svg PUBLIC "-//W3C//DTD SVG 20010904//EN"
 "http://www.w3.org/TR/2001/REC-SVG-20010904/DTD/svg10.dtd">
<svg version="1.0" xmlns="http://www.w3.org/2000/svg"
 width="962.000000pt" height="962.000000pt" viewBox="0 0 962.000000 962.000000"
 preserveAspectRatio="xMidYMid meet">
<metadata>
Created by potrace 1.14, written by Peter Selinger 2001-2017
</metadata>
<g transform="translate(0.000000,962.000000) scale(0.100000,-0.100000)"
fill="#000000" stroke="none">
<path d="M579 9582 l-27 -3 2 -4782 1 -4782 2118 -1 2117 -2 1 22 c0 11 0 832
0 1824 1 1366 3 1802 12 1803 7 0 965 1 2130 1 l2117 1 0 41 c4 364 0 5869 -4
5873 -6 6 -8417 11 -8467 5z"/>
<path d="M5545 2955 c-2 -11 -3 -679 -2 -1485 l2 -1465 1483 -1 1482 -1 1 26
c1 33 1 2840 0 2901 l-1 45 -1480 0 c-1473 0 -1481 0 -1485 -20z"/>
</g>
</svg>
